<?xml version="1.0" standalone="no"?>
<!DOCTYPE svg PUBLIC "-//W3C//DTD SVG 20010904//EN"
 "http://www.w3.org/TR/2001/REC-SVG-20010904/DTD/svg10.dtd">
<svg version="1.0" xmlns="http://www.w3.org/2000/svg"
 width="500.000000pt" height="500.000000pt" viewBox="0 0 500.000000 500.000000"
 preserveAspectRatio="xMidYMid meet">

<g transform="translate(0.000000,500.000000) scale(0.100000,-0.100000)"
fill="#000000" stroke="none">
<path d="M2520 3850 c-39 -11 -112 -59 -105 -70 3 -5 28 5 56 23 82 50 147 38
185 -35 21 -40 8 -75 -47 -135 -34 -36 -49 -60 -49 -80 0 -57 -10 -73 -44 -73
-77 0 -108 -18 -211 -125 -99 -102 -145 -133 -245 -168 -618 -215 -634 -222
-664 -298 -21 -53 -11 -67 39 -52 53 17 1993 -236 2048 -267 21 -11 42 -18 48
-14 16 10 5 87 -17 118 -27 37 -166 140 -399 297 -110 74 -218 152 -240 174
-22 22 -62 83 -89 135 -59 115 -103 164 -168 186 l-47 15 6 47 c4 38 14 56 49
92 24 25 49 61 54 80 26 91 -66 177 -160 150z m106 -409 c57 -26 77 -51 137
-166 33 -64 69 -117 99 -146 26 -25 143 -110 260 -189 256 -172 357 -249 381
-288 21 -36 23 -76 4 -69 -11 4 -162 114 -765 559 -42 31 -107 77 -143 103
l-67 47 -48 -21 c-68 -28 -455 -180 -834 -327 -91 -35 -180 -71 -198 -79 -41
-19 -42 -19 -42 4 0 25 39 65 86 89 54 27 197 80 409 152 272 93 307 112 407
221 50 56 99 99 123 110 52 24 138 24 191 0z m43 -273 c69 -51 154 -113 187
-138 34 -25 132 -97 219 -160 211 -154 231 -170 212 -170 -8 0 -377 47 -818
105 -441 58 -807 105 -813 105 -25 0 17 20 139 68 253 98 571 224 640 252 39
16 79 29 89 29 10 1 76 -41 145 -91z m-170 -388 c832 -109 901 -121 901 -153
0 -5 -15 -7 -32 -4 -18 2 -441 58 -940 123 -499 65 -904 122 -900 125 13 13
76 27 102 22 14 -2 405 -53 869 -113z"/>
<path d="M2170 2608 c-50 -145 -85 -218 -104 -218 -7 0 -58 16 -112 36 -244
88 -394 98 -394 25 0 -53 145 -182 248 -221 104 -39 171 -21 234 64 18 25 39
47 46 50 13 6 108 -28 128 -45 7 -5 15 -25 18 -44 4 -19 11 -37 17 -41 17 -10
21 3 8 24 -15 23 -5 56 15 49 8 -3 31 -9 50 -13 59 -10 41 11 -21 26 l-58 15
-6 100 c-4 55 -7 148 -8 208 0 59 -5 107 -10 107 -4 0 -27 -55 -51 -122z m49
-200 c1 -61 -1 -68 -19 -68 -19 0 -100 29 -100 36 0 1 15 38 34 81 19 43 42
102 52 131 l19 54 7 -84 c3 -46 6 -113 7 -150z m-428 48 c52 -14 130 -38 174
-54 101 -37 105 -51 37 -121 -46 -48 -51 -51 -99 -51 -116 0 -345 169 -319
236 8 22 100 17 207 -10z"/>
<path d="M2764 2534 c-8 -19 -17 -49 -21 -67 -8 -44 -28 -57 -90 -57 -29 0
-53 -4 -53 -10 0 -6 28 -10 65 -10 l65 0 0 -43 c0 -47 -18 -71 -77 -101 -52
-26 -87 -21 -124 19 -38 40 -56 43 -93 14 l-26 -20 0 25 c0 44 -17 29 -27 -24
-8 -41 -8 -50 4 -50 7 0 16 7 19 15 3 8 21 24 40 36 l34 21 42 -37 c37 -34 45
-37 85 -32 28 3 62 17 89 35 40 29 43 30 49 12 9 -29 54 -60 85 -60 16 0 53
13 84 29 52 28 55 29 61 10 9 -26 51 -36 73 -16 11 10 27 13 45 10 39 -8 116
14 155 43 50 38 38 47 -17 13 -38 -24 -63 -31 -103 -33 -50 -1 -53 0 -56 26
-5 46 -73 46 -115 1 -9 -11 -40 -30 -67 -43 -63 -30 -97 -21 -123 31 -16 34
-16 38 0 82 16 42 20 47 49 47 54 0 124 12 118 21 -2 4 -34 5 -71 2 l-66 -6 6
29 c4 16 10 50 13 77 6 44 5 47 -15 47 -16 0 -26 -10 -37 -36z m24 -63 c-17
-58 -40 -68 -27 -13 5 22 14 52 21 68 10 25 12 26 15 9 2 -11 -2 -40 -9 -64z
m-31 -93 c-3 -8 -6 -5 -6 6 -1 11 2 17 5 13 3 -3 4 -12 1 -19z m280 -109 c1
-36 -1 -40 -20 -37 -29 4 -33 32 -8 57 12 12 22 21 24 21 1 0 3 -18 4 -41z"/>
<path d="M1508 2024 c-5 -4 -8 -49 -8 -101 l0 -93 53 0 c86 0 124 44 76 88
-17 17 -18 20 -5 25 19 8 21 50 3 65 -16 14 -110 26 -119 16z m113 -30 c22
-26 -1 -49 -55 -52 l-46 -3 0 35 c0 36 0 36 44 36 28 0 48 -6 57 -16z m2 -81
c4 -2 7 -15 7 -28 0 -29 -26 -45 -74 -45 l-36 0 0 46 0 46 48 -7 c26 -4 50 -9
55 -12z"/>
<path d="M2723 2018 c-26 -12 -35 -42 -19 -62 6 -8 33 -23 61 -33 30 -11 51
-25 53 -36 10 -50 -72 -66 -107 -21 -13 17 -21 21 -21 12 0 -45 100 -67 133
-30 35 38 14 66 -66 92 -44 14 -57 35 -34 57 23 23 68 19 89 -7 20 -24 32 -23
23 2 -7 17 -48 38 -73 37 -9 0 -27 -5 -39 -11z"/>
<path d="M2873 1930 c0 -80 1 -92 6 -51 5 35 13 58 26 67 40 30 61 12 74 -67
l9 -54 1 50 c1 59 -19 95 -53 95 -13 0 -30 -7 -37 -17 -12 -14 -15 -11 -20 33
-4 33 -6 15 -6 -56z"/>
<path d="M2001 1993 c0 -12 -7 -24 -13 -26 -10 -4 -10 -6 0 -6 8 -1 12 -21 12
-66 0 -64 0 -65 28 -64 26 0 26 1 5 9 -20 8 -23 17 -23 64 0 49 2 55 23 59 22
4 22 4 0 6 -14 1 -23 9 -26 24 -4 22 -4 22 -6 0z"/>
<path d="M2080 2000 c0 -5 5 -10 10 -10 6 0 10 5 10 10 0 6 -4 10 -10 10 -5 0
-10 -4 -10 -10z"/>
<path d="M1696 1954 c-43 -43 -23 -117 33 -122 45 -5 71 20 71 68 0 43 -24 70
-63 70 -14 0 -33 -7 -41 -16z m78 -16 c21 -29 20 -57 -1 -80 -33 -36 -83 -11
-83 42 0 55 55 80 84 38z"/>
<path d="M1830 1928 c0 -24 6 -54 13 -68 15 -30 58 -38 80 -16 14 14 16 14 20
-2 3 -9 4 17 4 58 0 54 -2 61 -4 25 -4 -52 -25 -85 -53 -85 -28 0 -40 22 -40
77 0 29 -4 53 -10 53 -5 0 -10 -19 -10 -42z"/>
<path d="M2080 1900 c0 -40 4 -70 10 -70 6 0 10 30 10 70 0 40 -4 70 -10 70
-6 0 -10 -30 -10 -70z"/>
<path d="M2155 1956 c-23 -17 -27 -85 -6 -110 17 -21 65 -21 82 1 12 14 15 11
20 -33 4 -35 6 -18 7 56 0 58 -3 97 -7 87 -6 -17 -8 -17 -20 -3 -17 20 -51 21
-76 2z m75 -16 c25 -25 25 -51 1 -81 -16 -20 -23 -22 -47 -14 -24 9 -30 17
-32 47 -2 28 2 40 20 52 29 20 34 20 58 -4z"/>
<path d="M2301 1915 c0 -36 4 -66 11 -73 14 -14 64 -16 73 -2 4 6 -5 7 -23 4
-37 -7 -45 4 -53 76 l-6 55 -2 -60z"/>
<path d="M2398 1913 c-4 -62 -1 -83 13 -83 5 0 9 32 9 70 0 84 -17 94 -22 13z"/>
<path d="M2467 1952 c-38 -42 -11 -122 42 -122 27 0 61 17 61 31 0 6 -10 3
-22 -5 -29 -20 -52 -20 -72 0 -31 31 -20 44 39 44 47 0 55 3 55 18 0 46 -72
69 -103 34z m75 -9 c29 -26 22 -33 -32 -33 -54 0 -59 4 -33 32 20 22 41 23 65
1z"/>
<path d="M3036 1948 c-22 -30 -20 -81 2 -101 45 -41 112 -8 112 55 0 60 -82
93 -114 46z m75 2 c22 -12 27 -78 7 -98 -29 -29 -88 3 -88 48 0 23 29 60 46
60 9 0 24 -5 35 -10z"/>
<path d="M3181 1872 c-1 -66 3 -101 9 -97 6 3 10 23 10 43 0 28 3 33 12 24 18
-18 63 -14 81 6 23 25 22 85 -1 105 -24 21 -66 22 -83 1 -12 -14 -14 -14 -20
3 -4 10 -8 -28 -8 -85z m99 68 c25 -25 25 -51 1 -81 -16 -20 -23 -22 -47 -14
-24 9 -30 17 -32 46 -5 61 39 88 78 49z"/>
</g>
</svg>
